<mxfile host="app.diagrams.net" modified="2022-02-19T06:39:46.681Z" agent="5.0 (Windows NT 10.0; Win64; x64) AppleWebKit/537.36 (KHTML, like Gecko) Chrome/98.0.4758.102 Safari/537.36" etag="GyTB_nBdz5mk_zPq2uJi" version="16.5.3" type="github">
  <diagram id="juJUYdhsY8R3jdccG2Nd" name="Page-1">
    <mxGraphModel dx="1738" dy="1022" grid="1" gridSize="10" guides="1" tooltips="1" connect="1" arrows="1" fold="1" page="1" pageScale="1" pageWidth="850" pageHeight="1100" math="0" shadow="0">
      <root>
        <mxCell id="0" />
        <mxCell id="1" parent="0" />
        <mxCell id="P8W1ZzxDksONGK-kBhTN-12" style="edgeStyle=orthogonalEdgeStyle;rounded=0;orthogonalLoop=1;jettySize=auto;html=1;exitX=0.5;exitY=1;exitDx=0;exitDy=0;entryX=0.5;entryY=0;entryDx=0;entryDy=0;" edge="1" parent="1" source="P8W1ZzxDksONGK-kBhTN-1" target="P8W1ZzxDksONGK-kBhTN-3">
          <mxGeometry relative="1" as="geometry" />
        </mxCell>
        <mxCell id="P8W1ZzxDksONGK-kBhTN-13" style="edgeStyle=orthogonalEdgeStyle;rounded=0;orthogonalLoop=1;jettySize=auto;html=1;exitX=0.5;exitY=1;exitDx=0;exitDy=0;" edge="1" parent="1" source="P8W1ZzxDksONGK-kBhTN-1" target="P8W1ZzxDksONGK-kBhTN-2">
          <mxGeometry relative="1" as="geometry" />
        </mxCell>
        <mxCell id="P8W1ZzxDksONGK-kBhTN-1" value="CAIR.IN" style="rounded=1;whiteSpace=wrap;html=1;" vertex="1" parent="1">
          <mxGeometry x="720" y="490" width="120" height="60" as="geometry" />
        </mxCell>
        <mxCell id="P8W1ZzxDksONGK-kBhTN-16" style="edgeStyle=orthogonalEdgeStyle;rounded=0;orthogonalLoop=1;jettySize=auto;html=1;exitX=0.25;exitY=1;exitDx=0;exitDy=0;entryX=0;entryY=0.5;entryDx=0;entryDy=0;" edge="1" parent="1" source="P8W1ZzxDksONGK-kBhTN-2" target="P8W1ZzxDksONGK-kBhTN-14">
          <mxGeometry relative="1" as="geometry" />
        </mxCell>
        <mxCell id="P8W1ZzxDksONGK-kBhTN-17" style="edgeStyle=orthogonalEdgeStyle;rounded=0;orthogonalLoop=1;jettySize=auto;html=1;exitX=0.25;exitY=1;exitDx=0;exitDy=0;entryX=0;entryY=0.5;entryDx=0;entryDy=0;" edge="1" parent="1" source="P8W1ZzxDksONGK-kBhTN-2" target="P8W1ZzxDksONGK-kBhTN-15">
          <mxGeometry relative="1" as="geometry" />
        </mxCell>
        <mxCell id="P8W1ZzxDksONGK-kBhTN-2" value="Early Wage Liquidation" style="rounded=1;whiteSpace=wrap;html=1;" vertex="1" parent="1">
          <mxGeometry x="530" y="750" width="120" height="60" as="geometry" />
        </mxCell>
        <mxCell id="P8W1ZzxDksONGK-kBhTN-8" style="edgeStyle=orthogonalEdgeStyle;rounded=0;orthogonalLoop=1;jettySize=auto;html=1;exitX=0.25;exitY=1;exitDx=0;exitDy=0;entryX=0;entryY=0.5;entryDx=0;entryDy=0;" edge="1" parent="1" source="P8W1ZzxDksONGK-kBhTN-3" target="P8W1ZzxDksONGK-kBhTN-4">
          <mxGeometry relative="1" as="geometry" />
        </mxCell>
        <mxCell id="P8W1ZzxDksONGK-kBhTN-9" style="edgeStyle=orthogonalEdgeStyle;rounded=0;orthogonalLoop=1;jettySize=auto;html=1;exitX=0.25;exitY=1;exitDx=0;exitDy=0;entryX=0;entryY=0.5;entryDx=0;entryDy=0;" edge="1" parent="1" source="P8W1ZzxDksONGK-kBhTN-3" target="P8W1ZzxDksONGK-kBhTN-5">
          <mxGeometry relative="1" as="geometry" />
        </mxCell>
        <mxCell id="P8W1ZzxDksONGK-kBhTN-10" style="edgeStyle=orthogonalEdgeStyle;rounded=0;orthogonalLoop=1;jettySize=auto;html=1;exitX=0.25;exitY=1;exitDx=0;exitDy=0;entryX=0;entryY=0.5;entryDx=0;entryDy=0;" edge="1" parent="1" source="P8W1ZzxDksONGK-kBhTN-3" target="P8W1ZzxDksONGK-kBhTN-6">
          <mxGeometry relative="1" as="geometry" />
        </mxCell>
        <mxCell id="P8W1ZzxDksONGK-kBhTN-11" style="edgeStyle=orthogonalEdgeStyle;rounded=0;orthogonalLoop=1;jettySize=auto;html=1;exitX=0.25;exitY=1;exitDx=0;exitDy=0;entryX=0;entryY=0.5;entryDx=0;entryDy=0;" edge="1" parent="1" source="P8W1ZzxDksONGK-kBhTN-3" target="P8W1ZzxDksONGK-kBhTN-7">
          <mxGeometry relative="1" as="geometry" />
        </mxCell>
        <mxCell id="P8W1ZzxDksONGK-kBhTN-3" value="Payment with Early Wage Access" style="rounded=1;whiteSpace=wrap;html=1;" vertex="1" parent="1">
          <mxGeometry x="940" y="750" width="120" height="60" as="geometry" />
        </mxCell>
        <mxCell id="P8W1ZzxDksONGK-kBhTN-4" value="Pulsa" style="rounded=1;whiteSpace=wrap;html=1;" vertex="1" parent="1">
          <mxGeometry x="1000" y="840" width="100" height="50" as="geometry" />
        </mxCell>
        <mxCell id="P8W1ZzxDksONGK-kBhTN-5" value="Listrik" style="rounded=1;whiteSpace=wrap;html=1;" vertex="1" parent="1">
          <mxGeometry x="1000" y="930" width="100" height="50" as="geometry" />
        </mxCell>
        <mxCell id="P8W1ZzxDksONGK-kBhTN-6" value="Air" style="rounded=1;whiteSpace=wrap;html=1;" vertex="1" parent="1">
          <mxGeometry x="1000" y="1020" width="100" height="50" as="geometry" />
        </mxCell>
        <mxCell id="P8W1ZzxDksONGK-kBhTN-7" value="Kartu Kredit" style="rounded=1;whiteSpace=wrap;html=1;" vertex="1" parent="1">
          <mxGeometry x="1000" y="1110" width="100" height="50" as="geometry" />
        </mxCell>
        <mxCell id="P8W1ZzxDksONGK-kBhTN-14" value="Bank" style="rounded=1;whiteSpace=wrap;html=1;" vertex="1" parent="1">
          <mxGeometry x="580" y="840" width="100" height="50" as="geometry" />
        </mxCell>
        <mxCell id="P8W1ZzxDksONGK-kBhTN-15" value="Emoney" style="rounded=1;whiteSpace=wrap;html=1;" vertex="1" parent="1">
          <mxGeometry x="580" y="910" width="100" height="50" as="geometry" />
        </mxCell>
        <mxCell id="P8W1ZzxDksONGK-kBhTN-20" style="edgeStyle=orthogonalEdgeStyle;rounded=0;orthogonalLoop=1;jettySize=auto;html=1;exitX=0.5;exitY=1;exitDx=0;exitDy=0;" edge="1" parent="1" source="P8W1ZzxDksONGK-kBhTN-18" target="P8W1ZzxDksONGK-kBhTN-1">
          <mxGeometry relative="1" as="geometry" />
        </mxCell>
        <mxCell id="P8W1ZzxDksONGK-kBhTN-18" value="Pre-Paid" style="rounded=1;whiteSpace=wrap;html=1;" vertex="1" parent="1">
          <mxGeometry x="470" y="180" width="120" height="60" as="geometry" />
        </mxCell>
        <mxCell id="P8W1ZzxDksONGK-kBhTN-21" style="edgeStyle=orthogonalEdgeStyle;rounded=0;orthogonalLoop=1;jettySize=auto;html=1;exitX=0.5;exitY=1;exitDx=0;exitDy=0;" edge="1" parent="1" source="P8W1ZzxDksONGK-kBhTN-19" target="P8W1ZzxDksONGK-kBhTN-1">
          <mxGeometry relative="1" as="geometry" />
        </mxCell>
        <mxCell id="P8W1ZzxDksONGK-kBhTN-19" value="Post Paid" style="rounded=1;whiteSpace=wrap;html=1;" vertex="1" parent="1">
          <mxGeometry x="720" y="180" width="120" height="60" as="geometry" />
        </mxCell>
        <mxCell id="P8W1ZzxDksONGK-kBhTN-23" value="Company" style="rounded=0;whiteSpace=wrap;html=1;" vertex="1" parent="1">
          <mxGeometry x="70" y="200" width="120" height="60" as="geometry" />
        </mxCell>
        <mxCell id="P8W1ZzxDksONGK-kBhTN-24" value="CAIR.IN" style="rounded=0;whiteSpace=wrap;html=1;" vertex="1" parent="1">
          <mxGeometry x="70" y="490" width="120" height="60" as="geometry" />
        </mxCell>
        <mxCell id="P8W1ZzxDksONGK-kBhTN-25" value="End User" style="rounded=0;whiteSpace=wrap;html=1;" vertex="1" parent="1">
          <mxGeometry x="70" y="810" width="120" height="60" as="geometry" />
        </mxCell>
        <mxCell id="P8W1ZzxDksONGK-kBhTN-27" style="edgeStyle=orthogonalEdgeStyle;rounded=0;orthogonalLoop=1;jettySize=auto;html=1;exitX=0.5;exitY=1;exitDx=0;exitDy=0;entryX=0.5;entryY=0;entryDx=0;entryDy=0;" edge="1" parent="1" source="P8W1ZzxDksONGK-kBhTN-26" target="P8W1ZzxDksONGK-kBhTN-1">
          <mxGeometry relative="1" as="geometry" />
        </mxCell>
        <mxCell id="P8W1ZzxDksONGK-kBhTN-26" value="Vouchers" style="rounded=1;whiteSpace=wrap;html=1;" vertex="1" parent="1">
          <mxGeometry x="970" y="180" width="120" height="60" as="geometry" />
        </mxCell>
        <mxCell id="P8W1ZzxDksONGK-kBhTN-28" value="" style="endArrow=none;dashed=1;html=1;rounded=0;" edge="1" parent="1">
          <mxGeometry width="50" height="50" relative="1" as="geometry">
            <mxPoint x="70" y="360" as="sourcePoint" />
            <mxPoint x="1460" y="360" as="targetPoint" />
          </mxGeometry>
        </mxCell>
        <mxCell id="P8W1ZzxDksONGK-kBhTN-29" value="" style="endArrow=none;dashed=1;html=1;rounded=0;" edge="1" parent="1">
          <mxGeometry width="50" height="50" relative="1" as="geometry">
            <mxPoint x="85" y="610" as="sourcePoint" />
            <mxPoint x="1475" y="610" as="targetPoint" />
          </mxGeometry>
        </mxCell>
      </root>
    </mxGraphModel>
  </diagram>
</mxfile>
